<svg id="Ñëîé_1" data-name="Ñëîé 1" xmlns="http://www.w3.org/2000/svg" viewBox="0 0 374.29 238.08"><defs><style>.cls-1{fill:#ccf96a;}.cls-2{fill:#d0f4f2;}.cls-3{fill:#fff;}.cls-4{fill:#f5446f;}.cls-5{fill:#f8f5fc;}.cls-6,.cls-7{fill:#5e349d;}.cls-7{font-size:14px;stroke:#000;stroke-miterlimit:10;stroke-width:0.25px;font-family:CenturyGothic, Century Gothic;}</style></defs><title>404</title><path class="cls-1" d="M175.42,247.52S211.69,161,224.69,169s43.71,78.5,43.71,78.5Z" transform="translate(-95.85 -38)"/><path class="cls-1" d="M230.42,246.52S278.7,149.1,296,158.11s58.19,88.41,58.19,88.41Z" transform="translate(-95.85 -38)"/><path class="cls-1" d="M399.19,247.52S366,164.71,354.14,172.37s-39.95,75.15-39.95,75.15Z" transform="translate(-95.85 -38)"/><rect class="cls-2" x="181.33" y="107.52" width="6" height="101"/><rect class="cls-3" x="178.33" y="107.52" width="5" height="101"/><path class="cls-4" d="M291.32,59.52H267.06a14.71,14.71,0,0,0-10.41,4.31L239.5,81a14.73,14.73,0,0,0-4.31,10.41v24.26a14.73,14.73,0,0,0,4.31,10.41l17.15,17.15a14.71,14.71,0,0,0,10.41,4.31h24.26a14.71,14.71,0,0,0,10.4-4.31l17.16-17.15a14.73,14.73,0,0,0,4.31-10.41V91.39A14.73,14.73,0,0,0,318.88,81L301.72,63.83A14.71,14.71,0,0,0,291.32,59.52Z" transform="translate(-95.85 -38)"/><path class="cls-5" d="M268.46,106c.17,0,.26.66.26,2s-.09,2-.26,2l-1.73,0v3.3q0,.3-1.08.42a14.94,14.94,0,0,1-1.86.13l-1.07,0c-.89-.07-1.34-.23-1.34-.47v-3.25h-5.21a6.88,6.88,0,0,1-1.23-1.77,4,4,0,0,1-.55-1.57,1.55,1.55,0,0,1,.16-.77l5.73-10.16c.07-.14.61-.25,1.61-.32s2.06-.1,3.16-.1,1.65,0,1.65.13l0,10.5Zm-6.32,0v-5.47L259.08,106Z" transform="translate(-95.85 -38)"/><path class="cls-5" d="M278.16,114.1a6.8,6.8,0,0,1-5.37-2.41q-2.09-2.41-2.08-7c0-3.09.7-5.42,2.09-7a6.89,6.89,0,0,1,5.41-2.37,6.77,6.77,0,0,1,5.36,2.36q2,2.35,2,7.1t-2.08,7.06A6.91,6.91,0,0,1,278.16,114.1Zm0-13.81a2,2,0,0,0-1.7,1.14,6.19,6.19,0,0,0-.7,3.24,6.29,6.29,0,0,0,.67,3.21,1.9,1.9,0,0,0,3.46,0,6.42,6.42,0,0,0,.66-3.22,6.19,6.19,0,0,0-.69-3.22A2,2,0,0,0,278.16,100.29Z" transform="translate(-95.85 -38)"/><path class="cls-5" d="M300.85,106c.18,0,.26.66.26,2s-.08,2-.26,2l-1.73,0v3.3c0,.2-.35.34-1.07.42a15.19,15.19,0,0,1-1.86.13l-1.07,0c-.89-.07-1.34-.23-1.34-.47v-3.25h-5.21a6.88,6.88,0,0,1-1.23-1.77,4,4,0,0,1-.55-1.57A1.55,1.55,0,0,1,287,106l5.73-10.16c.07-.14.61-.25,1.61-.32s2.06-.1,3.16-.1,1.65,0,1.65.13l0,10.5Zm-6.31,0v-5.47L291.48,106Z" transform="translate(-95.85 -38)"/><path class="cls-6" d="M289.19,249h-23a1.5,1.5,0,0,1,0-3h23a1.5,1.5,0,0,1,0,3Z" transform="translate(-95.85 -38)"/><path class="cls-6" d="M254.19,249h-35a1.5,1.5,0,0,1,0-3h35a1.5,1.5,0,0,1,0,3Z" transform="translate(-95.85 -38)"/><path class="cls-6" d="M206.19,249h-37a1.5,1.5,0,0,1,0-3h37a1.5,1.5,0,0,1,0,3Z" transform="translate(-95.85 -38)"/><path class="cls-6" d="M399.19,249h-99a1.5,1.5,0,0,1,0-3h99a1.5,1.5,0,0,1,0,3Z" transform="translate(-95.85 -38)"/><path class="cls-6" d="M283.69,248a1.5,1.5,0,0,1-1.5-1.5V146a1.5,1.5,0,0,1,3,0v100.5A1.5,1.5,0,0,1,283.69,248Z" transform="translate(-95.85 -38)"/><path class="cls-6" d="M272.69,248a1.5,1.5,0,0,1-1.5-1.5V146a1.5,1.5,0,0,1,3,0v100.5A1.5,1.5,0,0,1,272.69,248Z" transform="translate(-95.85 -38)"/><path class="cls-6" d="M292.35,147H262a6.85,6.85,0,0,1-4.88-2l-21.44-21.44a6.84,6.84,0,0,1-2-4.88V88.36a6.83,6.83,0,0,1,2-4.88L257.15,62A6.85,6.85,0,0,1,262,60h30.32a6.89,6.89,0,0,1,4.88,2l21.44,21.44a6.87,6.87,0,0,1,2,4.88v30.32a6.89,6.89,0,0,1-2,4.88L297.23,145A6.89,6.89,0,0,1,292.35,147ZM262,63a3.86,3.86,0,0,0-2.76,1.14L237.83,85.6a3.87,3.87,0,0,0-1.14,2.76v30.32a3.87,3.87,0,0,0,1.14,2.76l21.44,21.44A3.9,3.9,0,0,0,262,144h30.32a3.92,3.92,0,0,0,2.75-1.14l21.45-21.44a3.91,3.91,0,0,0,1.14-2.76V88.36a3.91,3.91,0,0,0-1.14-2.76L295.1,64.16A3.92,3.92,0,0,0,292.35,63Z" transform="translate(-95.85 -38)"/><path class="cls-6" d="M285.73,136H268.64a11.79,11.79,0,0,1-8.39-3.48l-12.09-12.08a11.81,11.81,0,0,1-3.47-8.4V95a11.78,11.78,0,0,1,3.47-8.39L260.25,74.5A11.75,11.75,0,0,1,268.64,71h17.09a11.79,11.79,0,0,1,8.4,3.48l12.08,12.08A11.79,11.79,0,0,1,309.69,95v17.09a11.82,11.82,0,0,1-3.48,8.4l-12.08,12.08A11.83,11.83,0,0,1,285.73,136ZM268.64,74a8.8,8.8,0,0,0-6.27,2.6L250.29,88.7a8.8,8.8,0,0,0-2.6,6.27v17.09a8.82,8.82,0,0,0,2.6,6.28l12.08,12.08a8.8,8.8,0,0,0,6.27,2.6h17.09a8.78,8.78,0,0,0,6.27-2.6l12.09-12.08a8.86,8.86,0,0,0,2.6-6.28V95a8.84,8.84,0,0,0-2.6-6.27L292,76.62a8.78,8.78,0,0,0-6.27-2.6Z" transform="translate(-95.85 -38)"/><path class="cls-3" d="M243.25,87.58l9-9c2.9-2.89,5.73-6.62,9-9,3.86-2.82,10.82-1.47,15.2-1.47h13.65a1.5,1.5,0,0,0,0-3H275.55c-4.09,0-10-1-13.91.7s-7.17,6.4-10.08,9.31L241.13,85.46a1.5,1.5,0,0,0,2.12,2.12Z" transform="translate(-95.85 -38)"/><path class="cls-3" d="M273.69,141.52a1.5,1.5,0,0,1-.08-3l14.33-.75a11.75,11.75,0,0,0,7.22-3l6.52-5.87a1.5,1.5,0,0,1,2.12.12,1.48,1.48,0,0,1-.11,2.11L297.17,137a14.73,14.73,0,0,1-9.08,3.76l-14.32.76Z" transform="translate(-95.85 -38)"/><path class="cls-3" d="M278.51,131.46a1,1,0,0,1-.06-2l8.76-.51a1,1,0,0,0,.53-.19l6.17-4.6a1,1,0,0,1,1.2,1.6l-6.18,4.61a3,3,0,0,1-1.61.58l-8.75.51Z" transform="translate(-95.85 -38)"/><path class="cls-3" d="M276.25,130.43a1,1,0,1,1-1-1A1,1,0,0,1,276.25,130.43Z" transform="translate(-95.85 -38)"/><path class="cls-2" d="M206.16,72.52H102.35a6.53,6.53,0,0,1-6.5-6.5h0a6.52,6.52,0,0,1,6.5-6.5H206.16a6.51,6.51,0,0,1,6.5,6.5h0A6.52,6.52,0,0,1,206.16,72.52Z" transform="translate(-95.85 -38)"/><path class="cls-2" d="M231.27,64H127.46a6.53,6.53,0,0,1-6.5-6.5h0a6.53,6.53,0,0,1,6.5-6.5H231.27a6.52,6.52,0,0,1,6.5,6.5h0A6.52,6.52,0,0,1,231.27,64Z" transform="translate(-95.85 -38)"/><path class="cls-2" d="M202.36,51H139.55a6.52,6.52,0,0,1-6.5-6.5h0a6.52,6.52,0,0,1,6.5-6.5h62.81a6.53,6.53,0,0,1,6.5,6.5h0A6.53,6.53,0,0,1,202.36,51Z" transform="translate(-95.85 -38)"/><rect class="cls-2" x="14.81" y="30.87" width="91.43" height="13" rx="5.75" ry="5.75"/><path class="cls-2" d="M438.54,133.85H334.73a6.51,6.51,0,0,1-6.5-6.5h0a6.52,6.52,0,0,1,6.5-6.5H438.54a6.53,6.53,0,0,1,6.5,6.5h0A6.52,6.52,0,0,1,438.54,133.85Z" transform="translate(-95.85 -38)"/><path class="cls-2" d="M463.65,125.33H359.84a6.51,6.51,0,0,1-6.5-6.5h0a6.52,6.52,0,0,1,6.5-6.5H463.65a6.53,6.53,0,0,1,6.5,6.5h0A6.52,6.52,0,0,1,463.65,125.33Z" transform="translate(-95.85 -38)"/><path class="cls-2" d="M191.73,171.2H131.54a6.53,6.53,0,0,1-6.5-6.5h0a6.52,6.52,0,0,1,6.5-6.5h60.19a6.52,6.52,0,0,1,6.5,6.5h0A6.53,6.53,0,0,1,191.73,171.2Z" transform="translate(-95.85 -38)"/><path class="cls-2" d="M174.14,183.27H114a6.52,6.52,0,0,1-6.5-6.5h0a6.51,6.51,0,0,1,6.5-6.5h60.18a6.52,6.52,0,0,1,6.5,6.5h0A6.53,6.53,0,0,1,174.14,183.27Z" transform="translate(-95.85 -38)"/><path class="cls-2" d="M402.07,115.89H339.25a6.52,6.52,0,0,1-6.5-6.5h0a6.53,6.53,0,0,1,6.5-6.5h62.82a6.53,6.53,0,0,1,6.5,6.5h0A6.52,6.52,0,0,1,402.07,115.89Z" transform="translate(-95.85 -38)"/><rect class="cls-2" x="270.17" y="92.2" width="91.43" height="13" rx="5.75" ry="5.75"/><text class="cls-7" transform="translate(84.81 233.67)">Ups... Página no encontrada :(</text></svg>